<?xml version="1.0" standalone="no"?>
<!DOCTYPE svg PUBLIC "-//W3C//DTD SVG 20010904//EN"
 "http://www.w3.org/TR/2001/REC-SVG-20010904/DTD/svg10.dtd">
<svg version="1.0" xmlns="http://www.w3.org/2000/svg"
 width="768.000000pt" height="768.000000pt" viewBox="0 0 768.000000 768.000000"
 preserveAspectRatio="xMidYMid meet">
<metadata>
Created by potrace 1.11, written by Peter Selinger 2001-2013
</metadata>
<g transform="translate(0.000000,768.000000) scale(0.100000,-0.100000)"
fill="#000000" stroke="none">
<path d="M4022 7595 c-81 -26 -85 -41 -67 -230 14 -150 -31 -275 -143 -396
-130 -141 -289 -209 -712 -305 -248 -56 -453 -167 -626 -339 -257 -255 -344
-567 -229 -818 44 -96 39 -118 -44 -198 -168 -161 -265 -405 -255 -638 5 -100
23 -179 69 -306 29 -78 34 -149 12 -192 -11 -22 -47 -121 -52 -143 -1 -3 -7
-25 -14 -50 -43 -150 -48 -353 -12 -485 46 -167 162 -324 316 -428 l40 -27 1
-273 c1 -149 4 -289 8 -309 16 -101 76 -209 159 -290 54 -53 161 -118 194
-118 7 0 13 -1 13 -2 7 -57 40 -309 44 -323 2 -11 7 -49 10 -85 4 -36 8 -76
11 -90 2 -14 7 -46 9 -72 3 -26 8 -62 10 -80 4 -30 10 -73 21 -163 6 -47 16
-127 21 -165 7 -67 16 -135 19 -151 2 -8 6 -40 9 -70 4 -30 8 -70 11 -89 3
-19 7 -57 11 -85 8 -68 39 -157 82 -235 44 -79 178 -215 247 -252 61 -32 186
-68 310 -88 33 -5 76 -12 95 -16 19 -3 121 -8 225 -9 184 -3 311 8 425 35 26
6 54 13 61 14 26 5 74 18 119 33 193 60 380 301 405 518 3 28 8 67 10 88 10
77 15 113 20 157 3 25 7 56 10 70 2 14 7 50 10 80 4 30 8 66 10 80 2 14 7 48
10 75 3 28 10 84 15 125 5 41 12 95 15 120 3 25 10 79 15 120 5 41 12 93 15
115 2 22 14 107 25 189 11 82 20 150 20 152 0 2 6 4 13 4 33 0 142 66 196 120
63 62 102 120 132 200 29 77 31 104 33 388 l1 262 65 50 c154 118 251 260 295
433 19 77 23 111 20 208 -2 64 -9 136 -15 160 -19 74 -59 172 -85 211 -25 37
-25 38 -9 85 71 209 91 297 88 394 -5 158 -89 350 -203 460 -32 31 -187 156
-209 168 -13 7 -10 20 25 87 63 122 74 162 79 289 11 301 -176 585 -448 678
-16 6 -16 10 2 61 78 220 32 513 -127 806 -77 142 -204 294 -313 375 -57 43
-148 85 -223 105 -86 21 -235 24 -295 5z"/>
</g>
</svg>
